<?xml version="1.0" standalone="no"?><!DOCTYPE svg PUBLIC "-//W3C//DTD SVG 1.1//EN" "http://www.w3.org/Graphics/SVG/1.1/DTD/svg11.dtd"><svg class="icon" width="20px" height="20.00px" viewBox="0 0 1024 1024" version="1.1" xmlns="http://www.w3.org/2000/svg"><path fill="#d81e06" d="M426.670086 0.00001H28.44673A28.42624 28.42624 0 0 0 0.00001 28.44673v398.223356a28.42624 28.42624 0 0 0 28.44672 28.44672h398.223356a28.42624 28.42624 0 0 0 28.44672-28.44672V28.44673A28.42624 28.42624 0 0 0 426.670086 0.00001z m-28.44672 398.223356H56.89345V56.89345h341.329916zM995.55328 0.00001H597.329924a28.42624 28.42624 0 0 0-28.446719 28.44672v398.223356a28.42624 28.42624 0 0 0 28.446719 28.44672h398.223356a28.42624 28.42624 0 0 0 28.44672-28.44672V28.44673A28.42624 28.42624 0 0 0 995.55328 0.00001z m-28.446719 398.223356H625.776644V56.89345h341.329917zM426.670086 568.893445H28.44673A28.42624 28.42624 0 0 0 0.00001 597.329924v398.223356A28.42624 28.42624 0 0 0 28.44673 1024h398.223356a28.42624 28.42624 0 0 0 28.44672-28.44672V597.329924a28.42624 28.42624 0 0 0-28.44672-28.436479z m-28.44672 398.213116H56.89345V625.776644h341.329916zM951.613441 911.360001a211.967998 211.967998 0 0 0 43.939839-129.167359c0-117.637119-95.692799-213.329918-213.329918-213.329917S568.893445 664.576004 568.893445 782.223362 664.576004 995.55328 782.223362 995.55328A211.967998 211.967998 0 0 0 911.360001 951.613441l64.051199 64.051199a28.4416 28.4416 0 0 0 40.22272-40.22272z m-169.390079 27.31008c-86.251519 0-156.446718-70.195199-156.446718-156.446719s70.195199-156.446718 156.446718-156.446718 156.446718 70.195199 156.446719 156.446718-70.195199 156.446718-156.446719 156.446719z" /></svg>